<?xml version="1.0" encoding="UTF-8"?><svg id="Layer_2" xmlns="http://www.w3.org/2000/svg" viewBox="0 0 992.55 1374.08"><defs><style>.cls-1{fill:#fff;}</style></defs><g id="Layer_1-2"><g><path class="cls-1" d="M691.98,1374.08H300.56c-80.28,0-155.76-31.26-212.53-88.03S0,1153.8,0,1073.52V300.56C0,220.28,31.26,144.8,88.03,88.03S220.28,0,300.56,0h391.42c80.28,0,155.76,31.26,212.53,88.03s88.03,132.25,88.03,212.53v772.96c0,80.28-31.26,155.76-88.03,212.53s-132.25,88.03-212.53,88.03ZM300.56,90c-116.1,0-210.56,94.46-210.56,210.56v772.96c0,116.1,94.46,210.56,210.56,210.56h391.42c116.1,0,210.56-94.46,210.56-210.56V300.56c0-116.1-94.46-210.56-210.56-210.56H300.56Z"/><path class="cls-1" d="M546.19,1080.62h-99.83c-62.77,0-121.78-24.44-166.17-68.83-44.39-44.39-68.83-103.4-68.83-166.17v-302.66c0-62.77,24.44-121.78,68.83-166.17,44.39-44.39,103.4-68.83,166.17-68.83h99.83c62.77,0,121.78,24.44,166.17,68.83,44.39,44.39,68.83,103.4,68.83,166.17v13.94c0,3.6-1.49,7.03-4.12,9.48l-121.44,113.16c-5.32,4.96-5.52,13.32-.44,18.53l122.33,125.47c2.36,2.42,3.68,5.67,3.68,9.05v13.03c0,62.77-24.44,121.78-68.83,166.17-44.39,44.39-103.4,68.83-166.17,68.83Zm-86.87-682.66c-87.24,0-157.96,70.72-157.96,157.96v276.74c0,87.24,70.72,157.96,157.96,157.96h86.87c71.8,0,131.58-52.46,143.02-121.06,.68-4.1-.6-8.28-3.5-11.25l-159.25-163.33c-5.08-5.21-4.88-13.57,.44-18.53l158.09-147.31c3.23-3.01,4.7-7.45,3.93-11.79-12.12-67.79-71.52-119.4-142.74-119.4h-86.87Z"/></g></g></svg>