<svg width="72" height="72" viewBox="0 0 72 72" fill="none" xmlns="http://www.w3.org/2000/svg">
<g clip-path="url(#clip0_780_1448)">
<path d="M36 72C55.8823 72 72 55.8823 72 36C72 16.1177 55.8823 0 36 0C16.1177 0 0 16.1177 0 36C0 55.8823 16.1177 72 36 72Z" fill="black"/>
<path d="M25.4334 19.6877C26.9857 19.6877 28.4026 19.8259 29.6842 20.0995C30.9658 20.3731 32.0602 20.8224 32.9732 21.4474C33.8862 22.0723 34.5946 22.9018 35.0986 23.9386C35.6026 24.9754 35.8532 26.2541 35.8532 27.7776C35.8532 29.4221 35.4788 30.793 34.7329 31.8902C33.987 32.9875 32.881 33.8861 31.4209 34.5859C33.4311 35.1648 34.9316 36.1786 35.9223 37.6243C36.913 39.0701 37.4084 40.8154 37.4084 42.8573C37.4084 44.5018 37.0887 45.9274 36.4494 47.1312C35.81 48.335 34.9489 49.3171 33.866 50.0774C32.7831 50.8406 31.5505 51.4022 30.1652 51.768C28.7713 52.1338 27.3342 52.3181 25.8942 52.3152H10.0801V19.6877H25.4334ZM24.5204 32.8925C25.7991 32.8925 26.8503 32.5872 27.674 31.9795C28.4977 31.369 28.9095 30.3811 28.9066 29.0102C28.9066 28.2499 28.7684 27.625 28.4948 27.1382C28.2212 26.6515 27.8554 26.2685 27.3975 25.9949C26.9396 25.7213 26.4154 25.5312 25.8222 25.4246C25.2116 25.3181 24.5924 25.2634 23.9703 25.2662H17.257V32.8982L24.5204 32.8925ZM24.9322 46.7366C25.609 46.7395 26.283 46.6704 26.9425 46.5322C27.5818 46.3939 28.1463 46.1664 28.633 45.8467C29.1198 45.527 29.5086 45.0922 29.7994 44.545C30.0874 43.9978 30.2343 43.295 30.2343 42.4426C30.2343 40.7693 29.762 39.5712 28.8174 38.857C27.8727 38.1398 26.6228 37.7827 25.0705 37.7827H17.257V46.7395L24.9322 46.7366ZM46.4343 46.0512C47.4078 46.9958 48.8103 47.4682 50.6391 47.4682C51.9495 47.4682 53.0756 47.1398 54.0202 46.4861C54.9649 45.8323 55.5438 45.1382 55.7569 44.4067H61.4679C60.555 47.2406 59.1524 49.2653 57.2631 50.4835C55.3738 51.7018 53.09 52.3123 50.4087 52.3123C48.5511 52.3123 46.875 52.0157 45.3831 51.4224C43.8913 50.8291 42.627 49.9824 41.5902 48.8851C40.5534 47.7878 39.7527 46.4803 39.1911 44.9568C38.6295 43.4333 38.3473 41.7571 38.3473 39.9312C38.3473 38.1658 38.6353 36.5213 39.2142 34.9978C39.793 33.4742 40.6167 32.1581 41.6823 31.0464C42.7479 29.9347 44.0209 29.0592 45.4983 28.4198C46.9758 27.7805 48.6145 27.4608 50.4116 27.4608C52.4218 27.4608 54.1729 27.8496 55.6676 28.6272C57.1594 29.4048 58.3863 30.4474 59.3454 31.7578C60.3044 33.0682 60.9985 34.56 61.4247 36.2362C61.851 37.9123 62.0036 39.6634 61.8826 41.4922H44.8388C44.9281 43.5859 45.4609 45.1094 46.4343 46.0512ZM53.7697 33.624C52.9921 32.7715 51.8113 32.3453 50.2273 32.3453C49.1905 32.3453 48.3294 32.521 47.6468 32.8694C46.9614 33.2208 46.4142 33.6528 46.0023 34.1712C45.5905 34.6896 45.3025 35.2368 45.1354 35.8157C44.9684 36.3946 44.8676 36.913 44.8388 37.368H55.394C55.0858 35.7264 54.5444 34.4765 53.7697 33.624ZM43.7271 21.3437H56.9146V25.0013H43.7271V21.3437Z" fill="white"/>
</g>
<defs>
<clipPath id="clip0_780_1448">
<rect width="72" height="72" fill="white"/>
</clipPath>
</defs>
</svg>
