<svg width="2319" height="186" viewBox="0 0 2319 186" fill="none" xmlns="http://www.w3.org/2000/svg">
<path fill-rule="evenodd" clip-rule="evenodd" d="M456.389 184.783C444.855 184.783 434.252 180.864 424.582 173.027C414.911 165.019 407.222 154.029 401.513 140.057C395.92 125.915 393.124 109.984 393.124 92.2639C393.124 74.5437 395.92 58.6979 401.513 44.7262C407.222 30.5842 414.911 19.5944 424.582 11.7566C434.252 3.91886 444.855 0 456.389 0C468.04 0 478.643 3.91886 488.196 11.7566C497.867 19.5944 505.498 30.5842 511.091 44.7262C516.683 58.6979 519.479 74.5437 519.479 92.2639C519.479 109.984 516.683 125.915 511.091 140.057C505.498 154.029 497.867 165.019 488.196 173.027C478.526 180.864 467.924 184.783 456.389 184.783ZM456.389 138.268C465.127 138.268 472.001 134.094 477.011 125.745C482.138 117.396 484.701 106.235 484.701 92.2639C484.701 77.9515 482.138 66.706 477.011 58.5275C472.001 50.1786 465.127 46.0041 456.389 46.0041C447.534 46.0041 440.602 50.1786 435.592 58.5275C430.582 66.706 428.077 77.9515 428.077 92.2639C428.077 106.406 430.582 117.651 435.592 126C440.602 134.179 447.534 138.268 456.389 138.268ZM110.277 182.994V2.81135H76.023V70.5397H34.254V2.81135H0V182.994H34.254V110.666H76.023V182.994H110.277ZM164.133 72.3287V42.9372H208.699V2.81135H129.879V182.994H208.699V142.868H164.133V110.41H203.456V72.3287H164.133ZM259.879 144.657H298.153V182.994H225.625V2.81135H259.879V144.657ZM383.999 144.657H345.726V2.81135H311.472V182.994H383.999V144.657ZM672.069 21.7242C661.583 13.8864 649.408 9.96755 635.543 9.96755C617.251 9.96755 600.706 15.9311 585.909 27.8581C571.113 39.7851 559.462 56.3125 550.956 77.4403C542.451 98.3978 538.198 122.081 538.198 148.491C538.198 162.203 539.668 174.706 542.608 186H571.681C566.137 175.285 563.365 161.59 563.365 144.913C563.365 126.341 566.336 109.302 572.278 93.7973C578.336 78.2922 586.609 66.0245 597.094 56.994C607.697 47.7932 619.464 43.1928 632.397 43.1928C642.067 43.1928 650.456 45.6634 657.563 50.6046C664.67 55.5457 670.088 62.6167 673.816 71.8176C677.661 81.0184 679.584 91.8379 679.584 104.276C679.584 117.225 678.244 128.386 675.564 137.757C672.884 147.128 668.981 151.814 663.855 151.814C659.66 151.814 657.563 148.321 657.563 141.335C657.563 139.12 657.738 136.735 658.088 134.179L665.253 73.8622H638.339L636.591 88.1746C635.193 83.2334 632.863 79.3997 629.601 76.6736C626.339 73.777 622.261 72.3287 617.367 72.3287C609.911 72.3287 603.153 75.6513 597.094 82.2963C591.152 88.771 586.492 97.4606 583.113 108.365C579.734 119.27 578.045 130.856 578.045 143.124C578.045 156.244 580.433 166.467 585.21 173.793C590.104 181.12 596.861 184.783 605.483 184.783C611.658 184.783 617.193 182.994 622.086 179.416C627.096 175.838 631.115 170.727 634.145 164.081C635.892 170.556 638.863 175.582 643.058 179.161C647.369 182.568 652.67 184.272 658.961 184.272C668.632 184.272 676.962 180.609 683.953 173.282C690.943 165.956 696.186 156.159 699.682 143.891C703.294 131.453 705.1 117.737 705.1 102.743C705.1 84.5113 702.245 68.4099 696.536 54.4382C690.827 40.2962 682.671 29.3915 672.069 21.7242ZM627.154 142.102C624.125 147.043 620.63 149.513 616.668 149.513C613.639 149.513 611.25 148.15 609.503 145.424C607.872 142.528 607.056 138.694 607.056 133.923C607.056 126.597 608.454 120.378 611.25 115.266C614.163 109.984 617.717 107.343 621.911 107.343C624.94 107.343 627.329 108.876 629.077 111.943C630.824 114.84 631.698 118.759 631.698 123.7C631.698 130.856 630.183 136.99 627.154 142.102ZM786.805 184.783C775.271 184.783 764.668 180.864 754.998 173.027C745.327 165.019 737.638 154.029 731.929 140.057C726.336 125.915 723.54 109.984 723.54 92.2639C723.54 74.5437 726.336 58.6979 731.929 44.7262C737.638 30.5842 745.327 19.5944 754.998 11.7566C764.668 3.91886 775.271 0 786.805 0C798.456 0 809.059 3.91886 818.612 11.7566C828.283 19.5944 835.914 30.5842 841.507 44.7262C847.099 58.6979 849.895 74.5437 849.895 92.2639C849.895 109.984 847.099 125.915 841.507 140.057C835.914 154.029 828.283 165.019 818.612 173.027C808.942 180.864 798.34 184.783 786.805 184.783ZM786.805 138.268C795.543 138.268 802.417 134.094 807.427 125.745C812.554 117.396 815.117 106.235 815.117 92.2639C815.117 77.9515 812.554 66.706 807.427 58.5275C802.417 50.1786 795.543 46.0041 786.805 46.0041C777.95 46.0041 771.018 50.1786 766.008 58.5275C760.998 66.706 758.493 77.9515 758.493 92.2639C758.493 106.406 760.998 117.651 766.008 126C771.018 134.179 777.95 138.268 786.805 138.268ZM898.849 107.343V2.81135H864.77V107.343C864.77 124.041 866.983 138.183 871.411 149.769C875.955 161.355 882.13 170.13 889.936 176.094C897.859 181.887 906.83 184.783 916.85 184.783C926.87 184.783 935.957 181.887 944.113 176.094C952.385 170.13 958.91 161.355 963.687 149.769C968.464 138.012 970.852 123.87 970.852 107.343V2.81135H936.598V107.343C936.598 116.885 934.967 124.382 931.705 129.834C928.559 135.116 923.84 137.757 917.549 137.757C911.257 137.757 906.539 135.116 903.393 129.834C900.363 124.552 898.849 117.055 898.849 107.343ZM1036.2 184.783C1021.87 184.783 1010.1 179.842 1000.9 169.96C991.693 159.907 986.741 145.595 986.042 127.023H1022.57C1022.92 133.327 1024.2 137.927 1026.41 140.824C1028.63 143.72 1031.48 145.169 1034.98 145.169C1038.12 145.169 1040.69 144.061 1042.67 141.846C1044.76 139.461 1045.81 136.223 1045.81 132.134C1045.81 126.852 1044.12 122.763 1040.74 119.866C1037.36 116.97 1031.89 113.732 1024.32 110.154C1016.28 106.235 1009.75 102.487 1004.74 98.9089C999.848 95.1604 995.537 89.7933 991.809 82.8075C988.197 75.6513 986.391 66.3652 986.391 54.9494C986.391 43.3632 988.372 33.4808 992.333 25.3023C996.295 16.9534 1001.77 10.6491 1008.76 6.38946C1015.75 2.12982 1023.67 0 1032.53 0C1046.86 0 1058.28 4.94118 1066.78 14.8235C1075.41 24.5355 1080.01 38.2516 1080.59 55.9717H1043.36C1043.25 50.5194 1042.08 46.4301 1039.87 43.7039C1037.77 40.9778 1035.03 39.6147 1031.66 39.6147C1029.09 39.6147 1027 40.7222 1025.36 42.9372C1023.73 45.1522 1022.92 48.3043 1022.92 52.3936C1022.92 55.8013 1023.79 58.7831 1025.54 61.3389C1027.4 63.7243 1029.67 65.8541 1032.35 67.7283C1035.03 69.4322 1039 71.6472 1044.24 74.3734C1052.05 78.2922 1058.45 82.2111 1063.46 86.13C1068.59 89.8785 1072.96 95.2456 1076.57 102.231C1080.3 109.047 1082.16 117.737 1082.16 128.3C1082.16 139.035 1080.3 148.662 1076.57 157.181C1072.96 165.7 1067.66 172.43 1060.67 177.372C1053.79 182.313 1045.64 184.783 1036.2 184.783ZM1109.27 169.96C1118.48 179.842 1130.24 184.783 1144.57 184.783C1154.01 184.783 1162.17 182.313 1169.04 177.372C1176.03 172.43 1181.33 165.7 1184.95 157.181C1188.67 148.662 1190.54 139.035 1190.54 128.3C1190.54 117.737 1188.67 109.047 1184.95 102.231C1181.33 95.2456 1176.96 89.8785 1171.84 86.13C1166.83 82.2111 1160.42 78.2922 1152.61 74.3734C1147.37 71.6472 1143.41 69.4322 1140.73 67.7283C1138.05 65.8541 1135.78 63.7243 1133.91 61.3389C1132.17 58.7831 1131.29 55.8013 1131.29 52.3936C1131.29 48.3043 1132.11 45.1522 1133.74 42.9372C1135.37 40.7222 1137.47 39.6147 1140.03 39.6147C1143.41 39.6147 1146.15 40.9778 1148.24 43.7039C1150.46 46.4301 1151.62 50.5194 1151.74 55.9717H1188.97C1188.38 38.2516 1183.78 24.5355 1175.16 14.8235C1166.65 4.94118 1155.24 0 1140.9 0C1132.05 0 1124.13 2.12982 1117.14 6.38946C1110.15 10.6491 1104.67 16.9534 1100.71 25.3023C1096.75 33.4808 1094.77 43.3632 1094.77 54.9494C1094.77 66.3652 1096.57 75.6513 1100.18 82.8075C1103.91 89.7933 1108.22 95.1604 1113.12 98.9089C1118.13 102.487 1124.65 106.235 1132.69 110.154C1140.26 113.732 1145.74 116.97 1149.12 119.866C1152.5 122.763 1154.19 126.852 1154.19 132.134C1154.19 136.223 1153.14 139.461 1151.04 141.846C1149.06 144.061 1146.5 145.169 1143.35 145.169C1139.86 145.169 1137 143.72 1134.79 140.824C1132.57 137.927 1131.29 133.327 1130.94 127.023H1094.42C1095.12 145.595 1100.07 159.907 1109.27 169.96ZM1240.72 153.603L1234.08 182.994H1198.07L1242.99 2.81135H1282.49L1327.23 182.994H1291.05L1284.41 153.603H1240.72ZM1249.45 115.266H1275.84L1262.56 56.994L1249.45 115.266ZM1482.22 182.994V2.81135H1440.98L1410.74 119.866L1379.81 2.81135H1338.39V182.994H1372.64V82.8075L1396.06 182.994H1424.72L1447.97 83.5742V182.994H1482.22ZM1579.67 153.603H1535.97L1529.33 182.994H1493.33L1538.25 2.81135H1577.74L1622.48 182.994H1586.31L1579.67 153.603ZM1571.1 115.266L1557.82 56.994L1544.71 115.266H1571.1ZM1635.57 177.883C1639.3 182.653 1644.19 185.039 1650.25 185.039C1656.19 185.039 1660.97 182.568 1664.58 177.627C1668.31 172.686 1670.17 166.552 1670.17 159.225C1670.17 151.728 1668.31 145.509 1664.58 140.568C1660.97 135.627 1656.19 133.156 1650.25 133.156C1644.19 133.156 1639.3 135.627 1635.57 140.568C1631.96 145.509 1630.15 151.728 1630.15 159.225C1630.15 166.722 1631.96 172.941 1635.57 177.883ZM1734.97 2.81135C1747.91 2.81135 1759.21 6.64503 1768.88 14.3124C1778.66 21.8094 1786.18 32.3733 1791.42 46.0041C1796.67 59.635 1799.29 75.2253 1799.29 92.775C1799.29 110.154 1796.61 125.659 1791.25 139.29C1786 152.921 1778.49 163.655 1768.7 171.493C1759.03 179.161 1747.79 182.994 1734.97 182.994H1686.21V2.81135H1734.97ZM1732.35 138.779C1742.37 138.779 1750.24 134.775 1755.95 126.767C1761.65 118.759 1764.51 107.428 1764.51 92.775C1764.51 77.9515 1761.65 66.5356 1755.95 58.5275C1750.24 50.349 1742.37 46.2597 1732.35 46.2597H1720.47V138.779H1732.35ZM1848.98 72.3287V42.9372H1893.55V2.81135H1814.73V182.994H1893.55V142.868H1848.98V110.41H1888.3V72.3287H1848.98ZM1956.96 184.783C1942.63 184.783 1930.86 179.842 1921.66 169.96C1912.45 159.907 1907.5 145.595 1906.8 127.023H1943.33C1943.68 133.327 1944.96 137.927 1947.17 140.824C1949.39 143.72 1952.24 145.169 1955.74 145.169C1958.88 145.169 1961.45 144.061 1963.43 141.846C1965.52 139.461 1966.57 136.223 1966.57 132.134C1966.57 126.852 1964.88 122.763 1961.5 119.866C1958.13 116.97 1952.65 113.732 1945.08 110.154C1937.04 106.235 1930.51 102.487 1925.5 98.9089C1920.61 95.1604 1916.3 89.7933 1912.57 82.8075C1908.96 75.6513 1907.15 66.3652 1907.15 54.9494C1907.15 43.3632 1909.13 33.4808 1913.09 25.3023C1917.06 16.9534 1922.53 10.6491 1929.52 6.38946C1936.51 2.12982 1944.44 0 1953.29 0C1967.62 0 1979.04 4.94118 1987.55 14.8235C1996.17 24.5355 2000.77 38.2516 2001.35 55.9717H1964.13C1964.01 50.5194 1962.84 46.4301 1960.63 43.7039C1958.53 40.9778 1955.8 39.6147 1952.42 39.6147C1949.85 39.6147 1947.76 40.7222 1946.13 42.9372C1944.49 45.1522 1943.68 48.3043 1943.68 52.3936C1943.68 55.8013 1944.55 58.7831 1946.3 61.3389C1948.16 63.7243 1950.44 65.8541 1953.12 67.7283C1955.8 69.4322 1959.76 71.6472 1965 74.3734C1972.81 78.2922 1979.21 82.2111 1984.22 86.13C1989.35 89.8785 1993.72 95.2456 1997.33 102.231C2001.06 109.047 2002.92 117.737 2002.92 128.3C2002.92 139.035 2001.06 148.662 1997.33 157.181C1993.72 165.7 1988.42 172.43 1981.43 177.372C1974.55 182.313 1966.4 184.783 1956.96 184.783ZM2053.1 182.994V2.81135H2018.85V182.994H2053.1ZM2151.25 62.1056C2149.27 57.3348 2146.54 53.6715 2143.04 51.1157C2139.66 48.5599 2135.64 47.282 2130.98 47.282C2122.36 47.282 2115.54 51.3713 2110.53 59.5498C2105.64 67.7283 2103.19 78.7182 2103.19 92.5194C2103.19 108.025 2105.81 119.866 2111.06 128.045C2116.42 136.053 2124.17 140.057 2134.3 140.057C2146.3 140.057 2154.87 132.134 2159.99 116.288H2125.56V80.2517H2189.53V128.812C2186.85 138.353 2182.89 147.298 2177.64 155.647C2172.52 163.996 2165.99 170.897 2158.07 176.349C2150.15 181.631 2141.12 184.272 2130.98 184.272C2118.63 184.272 2107.68 180.438 2098.12 172.771C2088.69 164.933 2081.35 154.114 2076.1 140.313C2070.98 126.341 2068.42 110.41 2068.42 92.5194C2068.42 74.7993 2070.98 59.0386 2076.1 45.2374C2081.35 31.2658 2088.69 20.4463 2098.12 12.7789C2107.56 4.94118 2118.46 1.02231 2130.81 1.02231C2146.3 1.02231 2159.12 6.47465 2169.25 17.3793C2179.39 28.284 2185.68 43.1928 2188.13 62.1056H2151.25ZM2284.75 182.994H2319V2.81135H2284.75V104.787L2239.13 2.81135H2204.88V182.994H2239.13V82.2963L2284.75 182.994Z" fill="white"/>
</svg>
